<svg xmlns="http://www.w3.org/2000/svg" width="1920" height="1080">
<path style="fill:#ffffff; stroke:none;" d="M0 0L0 1080L1920 1080L1920 0L0 0z"/>
<path style="fill:#a5cacd; stroke:none;" d="M535.667 41.3334L536.333 41.6666L535.667 41.3334M1366 41L1367 42L1366 41z"/>
<path style="fill:#3aba78; stroke:none;" d="M535 42C516.803 80.4759 489.913 116.481 468 153C417.455 237.234 365.74 320.765 315.2 405C295.947 437.089 276.283 468.929 257 501L241.2 527C239.124 530.46 235.449 534.778 235.449 539C235.449 543.222 239.124 547.54 241.2 551L257 577L314.8 673C362.357 752.254 410.832 830.987 458.797 910C484.427 952.219 508.396 996.048 536 1037L629 977C623.635 962.346 612.638 948.256 604.424 935C591.1 913.495 578.331 891.625 565.203 870C521.781 798.472 478.65 726.751 435.6 655C418.782 626.969 401.82 599.03 385 571C380.213 563.022 366.836 548.415 366.836 539C366.836 529.341 380.682 514.198 385.6 506C402.618 477.637 419.784 449.361 436.8 421C478.03 352.282 518.946 283.333 560.811 215C574.84 192.101 588.28 168.828 602.424 146C611.409 131.499 622.246 116.674 629 101L562 57.8079L535 42z"/>
<path style="fill:#a5cacd; stroke:none;" d="M538 42L539 43L538 42z"/>
<path style="fill:#ee8650; stroke:none;" d="M1274 101C1289.58 137.161 1315.73 171.224 1336 205C1379.26 277.086 1422.95 348.912 1466.2 421C1483.22 449.364 1500.38 477.636 1517.4 506C1522.23 514.053 1536.13 529.619 1536.16 539C1536.19 548.176 1522.71 563.152 1518 571C1501.18 599.03 1484.22 626.969 1467.4 655C1423.55 728.089 1379.25 800.911 1335.4 874C1321.58 897.03 1307.62 919.969 1293.8 943C1287.28 953.862 1278.35 965.118 1274 977C1295.62 989.038 1316.4 1003.93 1337 1017.67C1346.02 1023.68 1357.29 1033.93 1368 1036L1441.19 915L1588.2 673L1645.42 578L1661.8 551L1667.98 539L1661.8 527L1645.42 500L1587.2 404L1441.8 164L1368 42C1357.32 44.0649 1346.01 54.3384 1337 60.3333C1316.38 74.0566 1295.64 88.9545 1274 101z"/>
<path style="fill:#a5cacd; stroke:none;" d="M534 43L535 44L534 43M539 43L540 44L539 43M541 44L542 45L541 44M533 45L534 46L533 45M532 46L533 47L532 46M544 46L545 47L544 46M531 48L532 49L531 48M547 48L548 49L547 48M550 50L551 51L550 50M529 51L530 52L529 51M552 51L553 52L552 51M553 52L554 53L553 52M1349 52L1350 53L1349 52M528 53L529 54L528 53M555 53L556 54L555 53M1374 53L1375 54L1374 53M556 54L557 55L556 54M1346 54L1347 55L1346 54M558 55L559 56L558 55M526 56L527 57L526 56M559 56L560 57L559 56M561 57L562 58L561 57M525 58L526 59L525 58M1377 58L1378 59L1377 58M564 59L565 60L564 59M523 61L524 62L523 61M567 61L568 62L567 61M569 62L570 63L569 62M522 63L523 64L522 63M570 63L571 64L570 63M1332 63L1333 64L1332 63M1380 63L1381 64L1380 63M521 64L522 65L521 64M572 64L573 65L572 64M573 65L574 66L573 65M1329 65L1330 66L1329 65M520 66L521 67L520 66M575 66L576 67L575 66M576 67L577 68L576 67M519 68L520 69L519 68M578 68L579 69L578 68M518 69L519 70L518 69M581 70L582 71L581 70M517 71L518 72L517 71M584 72L585 73L584 72M516 73L517 74L516 73M515 74L516 75L515 74M587 74L588 75L587 74M1315 74L1316 75L1315 74M589 75L590 76L589 75M514 76L515 77L514 76M590 76L591 77L590 76M1312 76L1313 77L1312 76M592 77L593 78L592 77M513 78L514 79L513 78M593 78L594 79L593 78M512 79L513 80L512 79M595 79L596 80L595 79M511 81L512 82L511 81M598 81L599 82L598 81M601 83L602 84L601 83M509 84L510 85L509 84M604 85L605 86L604 85M508 86L509 87L508 86M606 86L607 87L606 86M1394 86L1395 87L1394 86M607 87L608 88L607 87M1295 87L1296 88L1295 87M609 88L610 89L609 88M506 89L507 90L506 89M610 89L611 90L610 89M1292 89L1293 90L1292 89M612 90L613 91L612 90M505 91L506 92L505 91M613 91L614 92L613 91M1397 91L1398 92L1397 91M615 92L616 93L615 92M503 94L504 95L503 94M618 94L619 95L618 94M1070 95L1070 96L1077 96L1070 95z"/>
<path style="fill:#3f60ab; stroke:none;" d="M950 158L950 159L1001 210C1005.18 214.184 1013.76 226.559 1020 226.833C1024.19 227.016 1029.08 221.22 1032 218.728C1040.52 211.465 1048.72 204.942 1059 200.312C1098.77 182.398 1146.09 208.321 1157.57 249C1165.97 278.762 1151.55 302.245 1137.01 327C1116.05 362.691 1086.27 401.662 1082.17 444C1080.18 464.569 1082.83 485.814 1090.6 505C1093.84 512.992 1105.6 525.865 1105.6 534C1105.6 542.843 1092.92 556.152 1089.7 565C1080.05 591.478 1078.34 622.162 1087.7 649C1098.89 681.135 1117.11 710.11 1134.81 739C1145.35 756.204 1159.47 773.886 1159.99 795C1160.96 834.885 1128.44 877.446 1085 873.826C1058.71 871.636 1039.63 857.828 1021 840L1020 840L969 891C964.983 895.017 952.207 903.965 952.207 910C952.207 913.502 956.657 916.537 959 918.576C965.666 924.376 972.088 930.485 979 935.996C1011.18 961.651 1050.34 973 1091 973C1190.77 973 1272.68 877.529 1258.57 779C1251.04 726.434 1217.59 684.058 1192 639C1187.79 631.596 1180.73 621.612 1180.1 613C1178.2 587.182 1207.54 581.388 1227 585L1228 551L1228 484C1208.94 484.013 1173.88 483.171 1180.39 453C1184.48 434.053 1200.72 413.473 1210.6 397C1236.14 354.428 1262.23 313.823 1259.96 262C1255.26 154.751 1154.44 77.7082 1050 99.0038C1009.89 107.182 979.41 130.911 950 158z"/>
<path style="fill:#a5cacd; stroke:none;" d="M1096 95L1096 96L1103 96L1096 95M502 96L503 97L502 96M621 96L622 97L621 96M1062 96L1062 97L1066 97L1062 96M1108 96L1108 97L1112 97L1108 96M1400 96L1401 97L1400 96M501 97L502 98L501 97M623 97L624 98L623 97M1056 97L1056 98L1059 98L1056 97M1115 97L1115 98L1118 98L1115 97M624 98L625 99L624 98M1051.67 98.3333L1052.33 98.6667L1051.67 98.3333M1120 98L1120 99L1123 99L1120 98M1278 98L1279 99L1278 98M500 99L501 100L500 99M626 99L627 100L626 99M1046.67 99.3333L1047.33 99.6667L1046.67 99.3333M1125.67 99.3333L1126.33 99.6667L1125.67 99.3333M627 100L628 101L627 100M1042.67 100.333L1043.33 100.667L1042.67 100.333M1129.67 100.333L1130.33 100.667L1129.67 100.333M1275 100L1276 101L1275 100M499 101L500 102L499 101M1039 101L1040 102L1039 101M1133.67 101.333L1134.33 101.667L1133.67 101.333M498 102L499 103L498 102M628 102L629 103L628 102M1035.67 102.333L1036.33 102.667L1035.67 102.333M1137 102L1138 103L1137 102M1274 102L1275 103L1274 102M1032.67 103.333L1033.33 103.667L1032.67 103.333M1140 103L1141 104L1140 103M497 104L498 105L497 104M627 104L628 105L627 104M1029.67 104.333L1030.33 104.667L1029.67 104.333M1143 104L1144 105L1143 104M1026.67 105.333L1027.33 105.667L1026.67 105.333M1146 105L1147 106L1146 105M496 106L497 107L496 106M626 106L627 107L626 106M1024 106L1025 107L1024 106M1148.67 106.333L1149.33 106.667L1148.67 106.333M495 107L496 108L495 107M625 107L626 108L625 107M1021.67 107.333L1022.33 107.667L1021.67 107.333M1151 107L1152 108L1151 107M1277 107L1278 108L1277 107M1019 108L1020 109L1019 108M1153.67 108.333L1154.33 108.667L1153.67 108.333M494 109L495 110L494 109M624 109L625 110L624 109M1017 109L1018 110L1017 109M1156 109L1157 110L1156 109M1014.67 110.333L1015.33 110.667L1014.67 110.333M1158 110L1159 111L1158 110M493 111L494 112L493 111M623 111L624 112L623 111M1012 111L1013 112L1012 111M1160 111L1161 112L1160 111M492 112L493 113L492 112M622 112L623 113L622 112M1010 112L1011 113L1010 112M1162 112L1163 113L1162 112M1280 112L1281 113L1280 112z"/>
<path style="fill:#ee8650; stroke:none;" d="M699 113L699 748L699 904L699 942L700.603 954.972L718 956L764 956L943 956L943 844L811 844L811 224L943 224L943 113L699 113z"/>
<path style="fill:#a5cacd; stroke:none;" d="M1008 113L1009 114L1008 113M1164 113L1165 114L1164 113M491 114L492 115L491 114M621 114L622 115L621 114M1006 114L1007 115L1006 114M1166 114L1167 115L1166 114M1411 114L1412 115L1411 114M1004 115L1005 116L1004 115M1168 115L1169 116L1168 115M1003 116L1004 117L1003 116M1170 116L1171 117L1170 116M489 117L490 118L489 117M619 117L620 118L619 117M1001 117L1002 118L1001 117M1172 117L1173 118L1172 117M1283 117L1284 118L1283 117M999 118L1000 119L999 118M488 119L489 120L488 119M618 119L619 120L618 119M997 119L998 120L997 119M1175 119L1176 120L1175 119M1414 119L1415 120L1414 119M996 120L997 121L996 120M1177 120L1178 121L1177 120M994 121L995 122L994 121M486 122L487 123L486 122M616 122L617 123L616 122M1180 122L1181 123L1180 122M1286 122L1287 123L1286 122M991 123L992 124L991 123M485 124L486 125L485 124M615 124L616 125L615 124M1183 124L1184 125L1183 124M1417 124L1418 125L1417 124M484 125L485 126L484 125M988 125L989 126L988 125M1186 126L1187 127L1186 126M483 127L484 128L483 127M613 127L614 128L613 127M985 127L986 128L985 127M1187 127L1188 128L1187 127M1289 127L1290 128L1289 127M984 128L985 129L984 128M1189 128L1190 129L1189 128M482 129L483 130L482 129M612 129L613 130L612 129M1190 129L1191 130L1190 129M481 130L482 131L481 130M981 130L982 131L981 130M980 131L981 132L980 131M1193 131L1194 132L1193 131M480 132L481 133L480 132M610 132L611 133L610 132M1194 132L1195 133L1194 132M1292 132L1293 133L1292 132M977 133L978 134L977 133M1195 133L1196 134L1195 133M479 134L480 135L479 134M609 134L610 135L609 134M976 134L977 135L976 134M478 135L479 136L478 135M975 135L976 136L975 135M974 136L975 137L974 136M1199 136L1200 137L1199 136M477 137L478 138L477 137M607 137L608 138L607 137M1200 137L1201 138L1200 137M1201 138L1202 139L1201 138M476 139L477 140L476 139M606 139L607 140L606 139M970 139L971 140L970 139M1202 139L1203 140L1202 139M475 140L476 141L475 140M969 140L970 141L969 140M968 141L969 142L968 141M474 142L475 143L474 142M604 142L605 143L604 142M967 142L968 143L967 142M966 143L967 144L966 143M603 144L604 145L603 144M965 144L966 145L965 144M472 145L473 146L472 145M602 145L603 146L602 145M471 147L472 148L471 147M601 147L602 148L601 147M1431 147L1432 148L1431 147M960 148L961 149L960 148M600 149L601 150L600 149M959 149L960 150L959 149M469 150L470 151L469 150M599 150L600 151L599 150M958 150L959 151L958 150M957 151L958 152L957 151M468 152L469 153L468 152M598 152L599 153L598 152M956 152L957 153L956 152M1215 152L1216 153L1215 152M1434 152L1435 153L1434 152M955 153L956 154L955 153M1216 153L1217 154L1216 153M597 154L598 155L597 154M1217 154L1218 155L1217 154M466 155L467 156L466 155M596 155L597 156L596 155M1218 155L1219 156L1218 155M465 157L466 158L465 157M595 157L596 158L595 157M950 157L951 158L950 157M1437 157L1438 158L1437 157M464 158L465 159L464 158M594 159L595 160L594 159M1221 159L1222 160L1221 159M463 160L464 161L463 160M593 160L594 161L593 160M1222 160L1223 161L1222 160M1223 161L1224 162L1223 161M462 162L463 163L462 162M592 162L593 163L592 162M461 163L462 164L461 163M591 164L592 165L591 164M1225 164L1226 165L1225 164M460 165L461 166L460 165M590 165L591 166L590 165M1226 165L1227 166L1226 165M459 167L460 168L459 167M589 167L590 168L589 167M1227 167L1228 168L1227 167M458 168L459 169L458 168M1228 168L1229 169L1228 168M588 169L589 170L588 169M457 170L458 171L457 170M587 170L588 171L587 170M1230 171L1231 172L1230 171M456 172L457 173L456 172M586 172L587 173L586 172M455 173L456 174L455 173M585 174L586 175L585 174M1232 174L1233 175L1232 174M454 175L455 176L454 175M584 175L585 176L584 175M1318 175L1319 176L1318 175M583 177L584 178L583 177M1234 177L1235 178L1234 177M452 178L453 179L452 178M582 179L583 180L582 179M1235 179L1236 180L1235 179M451 180L452 181L451 180M581 180L582 181L581 180M1321 180L1322 181L1321 180M1451 180L1452 181L1451 180M580 182L581 183L580 182M1237 182L1238 183L1237 182M449 183L450 184L449 183M1238 184L1239 185L1238 184M448 185L449 186L448 185M578 185L579 186L578 185M1324 185L1325 186L1324 185M1454 185L1455 186L1454 185M1239 186L1240 187L1239 186M577 187L578 188L577 187M446 188L447 189L446 188M1240 188L1241 189L1240 188M445 190L446 191L445 190M575 190L576 191L575 190M1241 190L1242 191L1241 190M1327 190L1328 191L1327 190M1457 190L1458 191L1457 190M444 191L445 192L444 191M574 192L575 193L574 192M1242 192L1243 193L1242 192M443 193L444 194L443 193M1243 194L1244 195L1243 194M442 195L443 196L442 195M572 195L573 196L572 195M1075 195L1075 196L1079 196L1075 195M1094 195L1094 196L1098 196L1094 195M1330 195L1331 196L1330 195M441 196L442 197L441 196M1070 196L1070 197L1073 197L1070 196M1101.67 196.333L1102.33 196.667L1101.67 196.333M1244 196L1245 197L1244 196M571 197L572 198L571 197M1066.67 197.333L1067.33 197.667L1066.67 197.333M1105.67 197.333L1106.33 197.667L1105.67 197.333M440 198L441 199L440 198M1063.67 198.333L1064.33 198.667L1063.67 198.333M1109 198L1110 199L1109 198M1245 198L1246 199L1245 198M1060.67 199.333L1061.33 199.667L1060.67 199.333M1112 199L1113 200L1112 199M439 200L440 201L439 200M569 200L570 201L569 200M1058 200L1059 201L1058 200M1114.67 200.333L1115.33 200.667L1114.67 200.333M1246.33 200.667L1246.67 201.333L1246.33 200.667M1333 200L1334 201L1333 200M438 201L439 202L438 201M1056 201L1057 202L1056 201M1117 201L1118 202L1117 201M568 202L569 203L568 202M1054 202L1055 203L1054 202M1119 202L1120 203L1119 202M437 203L438 204L437 203M1052 203L1053 204L1052 203M1121 203L1122 204L1121 203M1247 203L1248 204L1247 203M1050 204L1051 205L1050 204M1123 204L1124 205L1123 204M436 205L437 206L436 205M566 205L567 206L566 205M1048 205L1049 206L1048 205M1124 205L1125 206L1124 205M1248.33 205.667L1248.67 206.333L1248.33 205.667M1336 205L1337 206L1336 205M435 206L436 207L435 206M1047 206L1048 207L1047 206M1126 206L1127 207L1126 206M565 207L566 208L565 207M1045 207L1046 208L1045 207M1127 207L1128 208L1127 207M434 208L435 209L434 208M1044 208L1045 209L1044 208M1129 208L1130 209L1129 208M1249 208L1250 209L1249 208M1468 208L1469 209L1468 208M1042 209L1043 210L1042 209M1130 209L1131 210L1130 209M563 210L564 211L563 210M1041 210L1042 211L1041 210M1339 210L1340 211L1339 210M432 211L433 212L432 211M1040 211L1041 212L1040 211M1133 211L1134 212L1133 211M1250 211L1251 212L1250 211M562 212L563 213L562 212M1134 212L1135 213L1134 212M431 213L432 214L431 213M561 213L562 214L561 213M1135 213L1136 214L1135 213M1471 213L1472 214L1471 213M1036 214L1037 215L1036 214M1136 214L1137 215L1136 214M1251 214L1252 215L1251 214M560 215L561 216L560 215M1035 215L1036 216L1035 215M1137 215L1138 216L1137 215M429 216L430 217L429 216M1034 216L1035 217L1034 216M1138 216L1139 217L1138 216M559 217L560 218L559 217M1033 217L1034 218L1033 217M1139 217L1140 218L1139 217M1252 217L1253 218L1252 217M428 218L429 219L428 218M558 218L559 219L558 218M1140 218L1141 219L1140 218M1474 218L1475 219L1474 218M427 219L428 220L427 219M1141 219L1142 220L1141 219M557 220L558 221L557 220M1029 220L1030 221L1029 220M1142 220L1143 221L1142 220M1253.33 220.667L1253.67 221.333L1253.33 220.667M426 221L427 222L426 221M1028 221L1029 222L1028 221M1143 221L1144 222L1143 221M556 222L557 223L556 222M1027 222L1028 223L1027 222M425 223L426 224L425 223M555 223L556 224L555 223M424 224L425 225L424 224M1145 224L1146 225L1145 224M1254.33 224.667L1254.67 225.333L1254.33 224.667M554 225L555 226L554 225M1023 225L1024 226L1023 225M1146 225L1147 226L1146 225M423 226L424 227L423 226M1022 226L1023 227L1022 226M553 227L554 228L553 227M1021 227L1022 228L1021 227M1147 227L1148 228L1147 227M422 228L423 229L422 228M552 228L553 229L552 228M1020 228L1021 229L1020 228M1148 228L1149 229L1148 228M1255.33 228.667L1255.67 229.333L1255.33 228.667M421 229L422 230L421 229M551 230L552 231L551 230M1149 230L1150 231L1149 230M420 231L421 232L420 231M550 232L551 233L550 232M1256 232L1256 235L1257 235L1256 232M419 233L420 234L419 233M549 233L550 234L549 233M1151 233L1152 234L1151 233M418 234L419 235L418 234M548 235L549 236L548 235M1152 235L1153 236L1152 235M417 236L418 237L417 236M547 237L548 238L547 237M1153 237L1154 238L1153 237M1257 237L1257 240L1258 240L1257 237M546 238L547 239L546 238M415 239L416 240L415 239M1154.33 239.667L1154.67 240.333L1154.33 239.667M545 240L546 241L545 240M414 241L415 242L414 241M1488 241L1489 242L1488 241M544 242L545 243L544 242M1155 242L1156 243L1155 242M543 243L544 244L543 243M1359 243L1360 244L1359 243M412 244L413 245L412 244M1258 244L1258 247L1259 247L1258 244M542 245L543 246L542 245M1156 245L1157 246L1156 245M411 246L412 247L411 246M1491 246L1492 247L1491 246M541 247L542 248L541 247M540 248L541 249L540 248M1157.33 248.667L1157.67 249.333L1157.33 248.667M1362 248L1363 249L1362 248M409 249L410 250L409 249M539 250L540 251L539 250M408 251L409 252L408 251M1494 251L1495 252L1494 251M407 252L408 253L407 252M1158.33 252.667L1158.67 253.333L1158.33 252.667M1259 252L1259 258L1260 258L1259 252M537 253L538 254L537 253M1365 253L1366 254L1365 253M406 254L407 255L406 254M536 255L537 256L536 255M405 256L406 257L405 256M404 257L405 258L404 257M1159 257L1159 261L1160 261L1159 257M534 258L535 259L534 258M1368 258L1369 259L1368 258M403 259L404 260L403 259M533 260L534 261L533 260M402 261L403 262L402 261M401 262L402 263L401 262M531 263L532 264L531 263M1371 263L1372 264L1371 263M400 264L401 265L400 264M530 265L531 266L530 265M399 266L400 267L399 266M398 267L399 268L398 267M528 268L529 269L528 268M1374 268L1375 269L1374 268M397 269L398 270L397 269M1505 269L1506 270L1505 269M527 270L528 271L527 270M395 272L396 273L395 272M525 273L526 274L525 273M1377 273L1378 274L1377 273M394 274L395 275L394 274M1508 274L1509 275L1508 274M524 275L525 276L524 275M1159 275L1159 279L1160 279L1159 275M392 277L393 278L392 277M1259 277L1259 284L1260 284L1259 277M522 278L523 279L522 278M1380 278L1381 279L1380 278M391 279L392 280L391 279M1511 279L1512 280L1511 279M521 280L522 281L521 280M389 282L390 283L389 282M1158.33 282.667L1158.67 283.333L1158.33 282.667M519 283L520 284L519 283M388 284L389 285L388 284M1514 284L1515 285L1514 284M387 285L388 286L387 285M518 285L519 286L518 285M517 286L518 287L517 286M1157.33 286.667L1157.67 287.333L1157.33 286.667M386 287L387 288L386 287M516 288L517 289L516 288M385 289L386 290L385 289M1258 289L1258 292L1259 292L1258 289M384 290L385 291L384 290M515 290L516 291L515 290M1156 290L1157 291L1156 290M514 291L515 292L514 291M383 292L384 293L383 292M513 293L514 294L513 293M1155 293L1156 294L1155 293M382 294L383 295L382 294M381 295L382 296L381 295M512 295L513 296L512 295M1154.33 295.667L1154.67 296.333L1154.33 295.667M1257 295L1257 298L1258 298L1257 295M511 296L512 297L511 296M380 297L381 298L380 297M510 298L511 299L510 298M1153 298L1154 299L1153 298M379 299L380 300L379 299M378 300L379 301L378 300M509 300L510 301L509 300M1152 300L1153 301L1152 300M508 301L509 302L508 301M1256.33 301.667L1256.67 302.333L1256.33 301.667M377 302L378 303L377 302M1151 302L1152 303L1151 302M1525 302L1526 303L1525 302M507 303L508 304L507 303M1150 304L1151 305L1150 304M375 305L376 306L375 305M506 305L507 306L506 305M1149 305L1150 306L1149 305M1255 305L1255 308L1256 308L1255 305M505 306L506 307L505 306M374 307L375 308L374 307M1148 307L1149 308L1148 307M1528 307L1529 308L1528 307M504 308L505 309L504 308M1147 309L1148 310L1147 309M372 310L373 311L372 310M503 310L504 311L503 310M1146 310L1147 311L1146 310M1254 310L1255 311L1254 310M502 311L503 312L502 311M371 312L372 313L371 312M1145 312L1146 313L1145 312M1531 312L1532 313L1531 312M501 313L502 314L501 313M1253.33 313.667L1253.67 314.333L1253.33 313.667M1144 314L1145 315L1144 314M369 315L370 316L369 315M500 315L501 316L500 315M499 316L500 317L499 316M368 317L369 318L368 317M1142 317L1143 318L1142 317M1252 317L1253 318L1252 317M367 318L368 319L367 318M498 318L499 319L498 318M1141 319L1142 320L1141 319M366 320L367 321L366 320M497 320L498 321L497 320M1251 320L1252 321L1251 320M496 321L497 322L496 321M1140 321L1141 322L1140 321M1406 321L1407 322L1406 321M365 322L366 323L365 322M1139 322L1140 323L1139 322M364 323L365 324L364 323M495 323L496 324L495 323M1250 323L1251 324L1250 323M1138 324L1139 325L1138 324M363 325L364 326L363 325M493 326L494 327L493 326M1137 326L1138 327L1137 326M1249 326L1250 327L1249 326M1409 326L1410 327L1409 326M362 327L363 328L362 327M361 328L362 329L361 328M492 328L493 329L492 328M1248.33 328.667L1248.67 329.333L1248.33 328.667M1135 329L1136 330L1135 329M360 330L361 331L360 330M490 331L491 332L490 331M1134 331L1135 332L1134 331M1247 331L1248 332L1247 331M1412 331L1413 332L1412 331M358 333L359 334L358 333M489 333L490 334L489 333M1133 333L1134 334L1133 333M1246.33 333.667L1246.67 334.333L1246.33 333.667M1132 334L1133 335L1132 334M357 335L358 336L357 335M1545 335L1546 336L1545 335M487 336L488 337L487 336M1131 336L1132 337L1131 336M1245 336L1246 337L1245 336M1415 336L1416 337L1415 336M355 338L356 339L355 338M486 338L487 339L486 338M1130 338L1131 339L1130 338M1244 338L1245 339L1244 338M354 340L355 341L354 340M1129 340L1130 341L1129 340M1243 340L1244 341L1243 340M1548 340L1549 341L1548 340M484 341L485 342L484 341M1128 341L1129 342L1128 341M1418 341L1419 342L1418 341M1242 342L1243 343L1242 342M352 343L353 344L352 343M483 343L484 344L483 343M1127 343L1128 344L1127 343M351 345L352 346L351 345M1126 345L1127 346L1126 345M1551 345L1552 346L1551 345M350 346L351 347L350 346M481 346L482 347L481 346M1421 346L1422 347L1421 346M1240 347L1241 348L1240 347M349 348L350 349L349 348M480 348L481 349L480 348M1124 348L1125 349L1124 348M348 350L349 351L348 350M1123 350L1124 351L1123 350M1238 350L1239 351L1238 350M347 351L348 352L347 351M478 351L479 352L478 351M1424 351L1425 352L1424 351M1122 352L1123 353L1122 352M1237 352L1238 353L1237 352M346 353L347 354L346 353M477 353L478 354L477 353M1121 353L1122 354L1121 353M1236 354L1237 355L1236 354M345 355L346 356L345 355M1120 355L1121 356L1120 355M344 356L345 357L344 356M475 356L476 357L475 356M1235 356L1236 357L1235 356M1119 357L1120 358L1119 357M343 358L344 359L343 358M474 358L475 359L474 358M473 359L474 360L473 359M1118 359L1119 360L1118 359M1233 359L1234 360L1233 359M342 360L343 361L342 360M1117 360L1118 361L1117 360M341 361L342 362L341 361M472 361L473 362L472 361M1232 361L1233 362L1232 361M1116 362L1117 363L1116 362M340 363L341 364L340 363M471 363L472 364L471 363M1562 363L1563 364L1562 363M470 364L471 365L470 364M1115 364L1116 365L1115 364M1230 364L1231 365L1230 364M338 366L339 367L338 366M469 366L470 367L469 366M1114 366L1115 367L1114 366M1229 366L1230 367L1229 366M1113 367L1114 368L1113 367M1228 367L1229 368L1228 367M337 368L338 369L337 368M468 368L469 369L468 368M1565 368L1566 369L1565 368M467 369L468 370L467 369M1112 369L1113 370L1112 369M1227 369L1228 370L1227 369M335 371L336 372L335 371M466 371L467 372L466 371M1111 371L1112 372L1111 371M1225 372L1226 373L1225 372M334 373L335 374L334 373M465 373L466 374L465 373M1568 373L1569 374L1568 373M464 374L465 375L464 374M1109 374L1110 375L1109 374M1223 375L1224 376L1223 375M332 376L333 377L332 376M463 376L464 377L463 376M1108 376L1109 377L1108 376M1222 377L1223 378L1222 377M331 378L332 379L331 378M462 378L463 379L462 378M1107 378L1108 379L1107 378M1221 378L1222 379L1221 378M1571 378L1572 379L1571 378M330 379L331 380L330 379M461 379L462 380L461 379M1106 380L1107 381L1106 380M1220 380L1221 381L1220 380M329 381L330 382L329 381M460 381L461 382L460 381M1105 381L1106 382L1105 381M328 383L329 384L328 383M459 383L460 384L459 383M1104 383L1105 384L1104 383M1218 383L1219 384L1218 383M327 384L328 385L327 384M458 384L459 385L458 384M1103 385L1104 386L1103 385M1217 385L1218 386L1217 385M326 386L327 387L326 386M457 386L458 387L457 386M1102 387L1103 388L1102 387M325 388L326 389L325 388M456 388L457 389L456 388M1101 388L1102 389L1101 388M1215 388L1216 389L1215 388M324 389L325 390L324 389M455 389L456 390L455 389M1447 389L1448 390L1447 389M1100 390L1101 391L1100 390M1214 390L1215 391L1214 390M323 391L324 392L323 391M454 391L455 392L454 391M1099 392L1100 393L1099 392M453 393L454 394L453 393M1212 393L1213 394L1212 393M321 394L322 395L321 394M452 394L453 395L452 394M1098 394L1099 395L1098 394M1450 394L1451 395L1450 394M1211 395L1212 396L1211 395M320 396L321 397L320 396M451 396L452 397L451 396M1582 396L1583 397L1582 396M1096 397L1097 398L1096 397M1209 398L1210 399L1209 398M318 399L319 400L318 399M449 399L450 400L449 399M1095 399L1096 400L1095 399M1453 399L1454 400L1453 399M1208 400L1209 401L1208 400M317 401L318 402L317 401M448 401L449 402L448 401M1094 401L1095 402L1094 401M1585 401L1586 402L1585 401M1207 402L1208 403L1207 402M1093 403L1094 404L1093 403M1206 403L1207 404L1206 403M315 404L316 405L315 404M446 404L447 405L446 404M1456 404L1457 405L1456 404M1092 405L1093 406L1092 405M1205 405L1206 406L1205 405M314 406L315 407L314 406M445 406L446 407L445 406M1588 406L1589 407L1588 406M313 407L314 408L313 407M1204 407L1205 408L1204 407M1091 408L1092 409L1091 408M1203 408L1204 409L1203 408M312 409L313 410L312 409M443 409L444 410L443 409M1459 409L1460 410L1459 409M1090 410L1091 411L1090 410M1202 410L1203 411L1202 410M311 411L312 412L311 411M442 411L443 412L442 411M310 412L311 413L310 412M1201 412L1202 413L1201 412M1089 413L1090 414L1089 413M309 414L310 415L309 414M440 414L441 415L440 414M1200 414L1201 415L1200 414M1462 414L1463 415L1462 414M1088.33 415.667L1088.67 416.333L1088.33 415.667M1199 415L1200 416L1199 415M308 416L309 417L308 416M439 416L440 417L439 416M307 417L308 418L307 417M1198 417L1199 418L1198 417M1087.33 418.667L1087.67 419.333L1087.33 418.667M306 419L307 420L306 419M437 419L438 420L437 419M1197 419L1198 420L1197 419M1465 419L1466 420L1465 419M305 421L306 422L305 421M436 421L437 422L436 421M1196 421L1197 422L1196 421M304 422L305 423L304 422M1086 422L1087 423L1086 422M303 424L304 425L303 424M434 424L435 425L434 424M1194 424L1195 425L1194 424M1468 424L1469 425L1468 424M1085.33 425.667L1085.67 426.333L1085.33 425.667M433 426L434 427L433 426M1193 426L1194 427L1193 426M301 427L302 428L301 427M1192 428L1193 429L1192 428M300 429L301 430L300 429M431 429L432 430L431 429M1084.33 429.667L1084.67 430.333L1084.33 429.667M1602 429L1603 430L1602 429M1191 430L1192 431L1191 430M430 431L431 432L430 431M298 432L299 433L298 432M1083 433L1083 436L1084 436L1083 433M1189 433L1190 434L1189 433M297 434L298 435L297 434M428 434L429 435L428 434M1605 434L1606 435L1605 434M1188 435L1189 436L1188 435M427 436L428 437L427 436M295 437L296 438L295 437M426 437L427 438L426 437M1187 437L1188 438L1187 437M294 439L295 440L294 439M425 439L426 440L425 439M1082 439L1082 442L1083 442L1082 439M1186 439L1187 440L1186 439M1608 439L1609 440L1608 439M293 440L294 441L293 440M424 441L425 442L424 441M1185 441L1186 442L1185 441M292 442L293 443L292 442M423 442L424 443L423 442M1184 443L1185 444L1184 443M291 444L292 445L291 444M422 444L423 445L422 444M290 445L291 446L290 445M1183 445L1184 446L1183 445M421 446L422 447L421 446M1081 446L1081 457L1082 457L1081 446M289 447L290 448L289 447M420 447L421 448L420 447M1182 447L1183 448L1182 447M288 449L289 450L288 449M419 449L420 450L419 449M1181 449L1182 450L1181 449M287 450L288 451L287 450M418 451L419 452L418 451M1180 451L1180 454L1181 454L1180 451M286 452L287 453L286 452M417 452L418 453L417 452M416 454L417 455L416 454M284 455L285 456L284 455M415 456L416 457L415 456M283 457L284 458L283 457M414 457L415 458L414 457M1619 457L1620 458L1619 457M413 459L414 460L413 459M1081 459L1081 469L1082 469L1081 459M281 460L282 461L281 460M1180 460L1180 463L1181 463L1180 460M412 461L413 462L412 461M280 462L281 463L280 462M411 462L412 463L411 462M1491 462L1492 463L1491 462M1622 462L1623 463L1622 462M410 464L411 465L410 464M278 465L279 466L278 465M1181 465L1182 466L1181 465M409 466L410 467L409 466M277 467L278 468L277 467M408 467L409 468L408 467M1182.33 467.667L1182.67 468.333L1182.33 467.667M1494 467L1495 468L1494 467M1625 467L1626 468L1625 467M407 469L408 470L407 469M275 470L276 471L275 470M1183 470L1184 471L1183 470M1184 471L1185 472L1184 471M274 472L275 473L274 472M405 472L406 473L405 472M1497 472L1498 473L1497 472M1628 472L1629 473L1628 472M273 473L274 474L273 473M1082 473L1082 477L1083 477L1082 473M1185 473L1186 474L1185 473M404 474L405 475L404 474M1186 474L1187 475L1186 474M272 475L273 476L272 475M1187 475L1188 476L1187 475M1188 476L1189 477L1188 476M271 477L272 478L271 477M402 477L403 478L402 477M1189 477L1190 478L1189 477M1500 477L1501 478L1500 477M270 478L271 479L270 478M1190 478L1191 479L1190 478M401 479L402 480L401 479M269 480L270 481L269 480M1083.33 480.667L1083.67 481.333L1083.33 480.667M1193 480L1194 481L1193 480M1195 481L1196 482L1195 481M399 482L400 483L399 482M1197.67 482.333L1198.33 482.667L1197.67 482.333M1503 482L1504 483L1503 482M267 483L268 484L267 483M1200 483L1200 484L1203 484L1200 483M1226.67 483.333L1227.33 483.667L1226.67 483.333M398 484L399 485L398 484M1206 484L1206 485L1219 485L1206 484M266 485L267 486L266 485M1084.33 485.667L1084.67 486.333L1084.33 485.667M396 487L397 488L396 487M1506 487L1507 488L1506 487M264 488L265 489L264 488M395 489L396 490L395 489M1085.33 489.667L1085.67 490.333L1085.33 489.667M263 490L264 491L263 490M1639 490L1640 491L1639 490M393 492L394 493L393 492M1509 492L1510 493L1509 492M261 493L262 494L261 493M1086 493L1087 494L1086 493M392 494L393 495L392 494M260 495L261 496L260 495M1642 495L1643 496L1642 495M1087 496L1088 497L1087 496M390 497L391 498L390 497M1512 497L1513 498L1512 497M258 498L259 499L258 498M389 499L390 500L389 499M1088 499L1089 500L1088 499M257 500L258 501L257 500M1645 500L1646 501L1645 500M256 501L257 502L256 501M387 502L388 503L387 502M1089 502L1090 503L1089 502M255 503L256 504L255 503M386 504L387 505L386 504M1090 504L1091 505L1090 504M254 505L255 506L254 505M253 506L254 507L253 506M384 507L385 508L384 507M1091 507L1092 508L1091 507M252 508L253 509L252 508M383 509L384 510L383 509M1092 509L1093 510L1092 509M250 511L251 512L250 511M1093 511L1094 512L1093 511M381 512L382 513L381 512M249 513L250 514L249 513M1094 513L1095 514L1094 513M380 514L381 515L380 514M1095 515L1096 516L1095 515M247 516L248 517L247 516M378 517L379 518L378 517M1096 517L1097 518L1096 517M246 518L247 519L246 518M377 519L378 520L377 519M1097 519L1098 520L1097 519M376 520L377 521L376 520M244 521L245 522L244 521M375 522L376 523L375 522M1099 522L1100 523L1099 522M243 523L244 524L243 523M1659 523L1660 524L1659 523M374 524L375 525L374 524M1100 524L1101 525L1100 524M373 525L374 526L373 525M1101 525L1102 526L1101 525M241 526L242 527L241 526M372 527L373 528L372 527M1102 527L1103 528L1102 527M240 528L241 529L240 528M1103 528L1104 529L1103 528M1662 528L1663 529L1662 528M239 529L240 530L239 529M371 529L372 530L371 529M370 530L371 531L370 530M1104 530L1105 531L1104 530M238 531L239 532L238 531M1105 531L1106 532L1105 531M369 532L370 533L369 532M237 533L238 534L237 533M1665 533L1666 534L1665 533M236 534L237 535L236 534M368 534L369 535L368 534M367 535L368 536L367 535M1535 535L1536 536L1535 535M235 536L236 537L235 536M1105 536L1106 537L1105 536M366 537L367 538L366 537M234.333 538.667L234.667 539.333L234.333 538.667M1103 539L1104 540L1103 539M366 540L367 541L366 540M1102 540L1103 541L1102 540M235 541L236 542L235 541M367 542L368 543L367 542M1101 542L1102 543L1101 542M1535 542L1536 543L1535 542M236 543L237 544L236 543M368 543L369 544L368 543M237 544L238 545L237 544M1665 544L1666 545L1665 544M369 545L370 546L369 545M1099 545L1100 546L1099 545M238 546L239 547L238 546M370 547L371 548L370 547M1532 547L1533 548L1532 547M239 548L240 549L239 548M371 548L372 549L371 548M1097 548L1098 549L1097 548M240 549L241 550L240 549M1662 549L1663 550L1662 549M372 550L373 551L372 550M1096 550L1097 551L1096 550M241 551L242 552L241 551M373 552L374 553L373 552M1095 552L1096 553L1095 552M374 553L375 554L374 553M243 554L244 555L243 554M1094 554L1095 555L1094 554M1659 554L1660 555L1659 554M375 555L376 556L375 555M244 556L245 557L244 556M1093 556L1094 557L1093 556M376 557L377 558L376 557M377 558L378 559L377 558M1092 558L1093 559L1092 558M246 559L247 560L246 559M1656 559L1657 560L1656 559M378 560L379 561L378 560M1091 560L1092 561L1091 560M247 561L248 562L247 561M380 563L381 564L380 563M249 564L250 565L249 564M381 565L382 566L381 565M1089 565L1090 566L1089 565M250 566L251 567L250 566M383 568L384 569L383 568M1088 568L1089 569L1088 568M252 569L253 570L252 569M384 570L385 571L384 570M253 571L254 572L253 571M1087 571L1088 572L1087 571M254 572L255 573L254 572M386 573L387 574L386 573M255 574L256 575L255 574M1086.33 574.667L1086.67 575.333L1086.33 574.667M387 575L388 576L387 575M256 576L257 577L256 576M257 577L258 578L257 577M1085.33 577.667L1085.67 578.333L1085.33 577.667M1645 577L1646 578L1645 577M389 578L390 579L389 578M258 579L259 580L258 579M390 580L391 581L390 580M1084.33 581.667L1084.67 582.333L1084.33 581.667M260 582L261 583L260 582M1642 582L1643 583L1642 582M392 583L393 584L392 583M261 584L262 585L261 584M1204.67 584.333L1205.33 584.667L1204.67 584.333M1218 584L1218 585L1225 585L1218 584M1227 584L1228 585L1227 584M393 585L394 586L393 585M1199 585L1200 586L1199 585M1509 585L1510 586L1509 585M1083.33 586.667L1083.67 587.333L1083.33 586.667M1196 586L1197 587L1196 586M263 587L264 588L263 587M1194 587L1195 588L1194 587M1639 587L1640 588L1639 587M395 588L396 589L395 588M264 589L265 590L264 589M1191 589L1192 590L1191 589M396 590L397 591L396 590M1506 590L1507 591L1506 590M266 592L267 593L266 592M1082 592L1082 595L1083 595L1082 592M398 593L399 594L398 593M267 594L268 595L267 594M399 595L400 596L399 595M1503 595L1504 596L1503 595M1184 596L1185 597L1184 596M269 597L270 598L269 597M401 598L402 599L401 598M1183 598L1184 599L1183 598M270 599L271 600L270 599M1081 599L1081 610L1082 610L1081 599M402 600L403 601L402 600M1182 600L1183 601L1182 600M1500 600L1501 601L1500 600M403 601L404 602L403 601M272 602L273 603L272 602M1181.33 602.667L1181.67 603.333L1181.33 602.667M404 603L405 604L404 603M273 604L274 605L273 604M405 605L406 606L405 605M1497 605L1498 606L1497 605M406 606L407 607L406 606M1180 606L1180 609L1181 609L1180 606M275 607L276 608L275 607M407 608L408 609L407 608M276 609L277 610L276 609M277 610L278 611L277 610M408 610L409 611L408 610M1494 610L1495 611L1494 610M1625 610L1626 611L1625 610M409 611L410 612L409 611M278 612L279 613L278 612M1081 612L1081 622L1082 622L1081 612M410 613L411 614L410 613M280 615L281 616L280 615M411 615L412 616L411 615M1180.33 615.667L1180.67 616.333L1180.33 615.667M1491 615L1492 616L1491 615M1622 615L1623 616L1622 615M412 616L413 617L412 616M281 617L282 618L281 617M413 618L414 619L413 618M1181.33 618.667L1181.67 619.333L1181.33 618.667M283 620L284 621L283 620M1619 620L1620 621L1619 620M415 621L416 622L415 621M284 622L285 623L284 622M416 623L417 624L416 623M286 625L287 626L286 625M418 626L419 627L418 626M1082 626L1082 629L1083 629L1082 626M1185 626L1186 627L1185 626M287 627L288 628L287 627M419 628L420 629L419 628M1186 628L1187 629L1186 628M289 630L290 631L289 630M1187 630L1188 631L1187 630M421 631L422 632L421 631M290 632L291 633L290 632M1083 632L1083 635L1084 635L1083 632M1188 632L1189 633L1188 632M422 633L423 634L422 633M1189 634L1190 635L1189 634M292 635L293 636L292 635M424 636L425 637L424 636M1190 636L1191 637L1190 636M293 637L294 638L293 637M1084.33 637.667L1084.67 638.333L1084.33 637.667M425 638L426 639L425 638M1191 638L1192 639L1191 638M1608 638L1609 639L1608 638M1192 639L1193 640L1192 639M295 640L296 641L295 640M427 641L428 642L427 641M1085.33 641.667L1085.67 642.333L1085.33 641.667M1193 641L1194 642L1193 641M296 642L297 643L296 642M297 643L298 644L297 643M428 643L429 644L428 643M1194 643L1195 644L1194 643M1605 643L1606 644L1605 643M298 645L299 646L298 645M1086 645L1087 646L1086 645M1195 645L1196 646L1195 645M430 646L431 647L430 646M299 647L300 648L299 647M1196 647L1197 648L1196 647M431 648L432 649L431 648M1087 648L1088 649L1087 648M1197 648L1198 649L1197 648M301 650L302 651L301 650M1198 650L1199 651L1198 650M433 651L434 652L433 651M1088 651L1089 652L1088 651M302 652L303 653L302 652M1199 652L1200 653L1199 652M434 653L435 654L434 653M1089.33 653.667L1089.67 654.333L1089.33 653.667M1468 653L1469 654L1468 653M1200 654L1201 655L1200 654M304 655L305 656L304 655M1201 655L1202 656L1201 655M436 656L437 657L436 656M1090.33 656.667L1090.67 657.333L1090.33 656.667M305 657L306 658L305 657M1202 657L1203 658L1202 657M437 658L438 659L437 658M1465 658L1466 659L1465 658M1091 659L1092 660L1091 659M1203 659L1204 660L1203 659M307 660L308 661L307 660M1595 660L1596 661L1595 660M439 661L440 662L439 661M308 662L309 663L308 662M1092 662L1093 663L1092 662M1205 662L1206 663L1205 662M440 663L441 664L440 663M1462 663L1463 664L1462 663M1093 664L1094 665L1093 664M1206 664L1207 665L1206 664M310 665L311 666L310 665M1592 665L1593 666L1592 665M442 666L443 667L442 666M1207 666L1208 667L1207 666M311 667L312 668L311 667M1094 667L1095 668L1094 667M1208 667L1209 668L1208 667M443 668L444 669L443 668M1459 668L1460 669L1459 668M1095 669L1096 670L1095 669M1209 669L1210 670L1209 669M313 670L314 671L313 670M1589 670L1590 671L1589 670M445 671L446 672L445 671M1096 671L1097 672L1096 671M1210 671L1211 672L1210 671M446 673L447 674L446 673M1097 673L1098 674L1097 673M1456 673L1457 674L1456 673M447 674L448 675L447 674M1212 674L1213 675L1212 674M316 675L317 676L316 675M1098 675L1099 676L1098 675M448 676L449 677L448 676M1213 676L1214 677L1213 676M1099 677L1100 678L1099 677M449 678L450 679L449 678M1453 678L1454 679L1453 678M450 679L451 680L450 679M1100 679L1101 680L1100 679M1215 679L1216 680L1215 679M319 680L320 681L319 680M451 681L452 682L451 681M1101 681L1102 682L1101 681M1216 681L1217 682L1216 681M321 683L322 684L321 683M1102 683L1103 684L1102 683M1450 683L1451 684L1450 683M453 684L454 685L453 684M1218 684L1219 685L1218 684M322 685L323 686L322 685M1103 685L1104 686L1103 685M454 686L455 687L454 686M1219 686L1220 687L1219 686M1104 687L1105 688L1104 687M1220 687L1221 688L1220 687M324 688L325 689L324 688M1105 688L1106 689L1105 688M1578 688L1579 689L1578 688M456 689L457 690L456 689M1221 689L1222 690L1221 689M325 690L326 691L325 690M1106 690L1107 691L1106 690M457 691L458 692L457 691M1107 692L1108 693L1107 692M1223 692L1224 693L1223 692M327 693L328 694L327 693M1575 693L1576 694L1575 693M459 694L460 695L459 694M1108 694L1109 695L1108 694M1224 694L1225 695L1224 694M328 695L329 696L328 695M1225 695L1226 696L1225 695M460 696L461 697L460 696M1109 696L1110 697L1109 696M1226 697L1227 698L1226 697M330 698L331 699L330 698M1572 698L1573 699L1572 698M462 699L463 700L462 699M1111 699L1112 700L1111 699M331 700L332 701L331 700M1228 700L1229 701L1228 700M463 701L464 702L463 701M1112 701L1113 702L1112 701M1229 702L1230 703L1229 702M333 703L334 704L333 703M1113 703L1114 704L1113 703M1230 703L1231 704L1230 703M1569 703L1570 704L1569 703M465 704L466 705L465 704M1231 705L1232 706L1231 705M466 706L467 707L466 706M1115 706L1116 707L1115 706M1232 706L1233 707L1232 706M336 708L337 709L336 708M1116 708L1117 709L1116 708M1233 708L1234 709L1233 708M468 709L469 710L468 709M1117 710L1118 711L1117 710M1234 710L1235 711L1234 710M469 711L470 712L469 711M1118 711L1119 712L1118 711M339 713L340 714L339 713M1119 713L1120 714L1119 713M1236 713L1237 714L1236 713M471 714L472 715L471 714M1120 715L1121 716L1120 715M1237 715L1238 716L1237 715M341 716L342 717L341 716M472 716L473 717L472 716M1238 717L1239 718L1238 717M342 718L343 719L342 718M1122 718L1123 719L1122 718M343 719L344 720L343 719M474 719L475 720L474 719M1239 719L1240 720L1239 719M1123 720L1124 721L1123 720M344 721L345 722L344 721M475 721L476 722L475 721M1240 721L1241 722L1240 721M1125 723L1126 724L1125 723M1241 723L1242 724L1241 723M346 724L347 725L346 724M477 724L478 725L477 724M1126 725L1127 726L1126 725M1242 725L1243 726L1242 725M347 726L348 727L347 726M478 726L479 727L478 726M1424 726L1425 727L1424 726M1243 727L1244 728L1243 727M1128 728L1129 729L1128 728M349 729L350 730L349 729M480 729L481 730L480 729M1244 729L1245 730L1244 729M1129 730L1130 731L1129 730M350 731L351 732L350 731M481 731L482 732L481 731M1130 731L1131 732L1130 731M1245 731L1246 732L1245 731M1421 731L1422 732L1421 731M1551 732L1552 733L1551 732M1131 733L1132 734L1131 733M352 734L353 735L352 734M483 734L484 735L483 734M1246 734L1247 735L1246 734M1132 735L1133 736L1132 735M353 736L354 737L353 736M484 736L485 737L484 736M1133 736L1134 737L1133 736M1247 736L1248 737L1247 736M1418 736L1419 737L1418 736M1548 737L1549 738L1548 737M1134 738L1135 739L1134 738M355 739L356 740L355 739M486 739L487 740L486 739M1248 739L1249 740L1248 739M356 741L357 742L356 741M487 741L488 742L487 741M1136 741L1137 742L1136 741M1249 741L1250 742L1249 741M1415 741L1416 742L1415 741M357 742L358 743L357 742M488 742L489 743L488 742M1545 742L1546 743L1545 742M1137 743L1138 744L1137 743M358 744L359 745L358 744M489 744L490 745L489 744M1138 744L1139 745L1138 744M1250 744L1251 745L1250 744M1139 746L1140 747L1139 746M1412 746L1413 747L1412 746M360 747L361 748L360 747M491 747L492 748L491 747M1251 747L1252 748L1251 747M1542 747L1543 748L1542 747M361 749L362 750L361 749M492 749L493 750L492 749M1141 749L1142 750L1141 749M1252.33 750.667L1252.67 751.333L1252.33 750.667M1142 751L1143 752L1142 751M1409 751L1410 752L1409 751M363 752L364 753L363 752M494 752L495 753L494 752M1143 752L1144 753L1143 752M1253.33 753.667L1253.67 754.333L1253.33 753.667M364 754L365 755L364 754M495 754L496 755L495 754M1144 754L1145 755L1144 754M1406 756L1407 757L1406 756M366 757L367 758L366 757M497 757L498 758L497 757M1146 757L1147 758L1146 757M1254.33 757.667L1254.67 758.333L1254.33 757.667M367 759L368 760L367 759M498 759L499 760L498 759M1147 759L1148 760L1147 759M1148 760L1149 761L1148 760M1255.33 761.667L1255.67 762.333L1255.33 761.667M369 762L370 763L369 762M500 762L501 763L500 762M1149 762L1150 763L1149 762M370 764L371 765L370 764M501 764L502 765L501 764M1150 764L1151 765L1150 764M1256.33 765.667L1256.67 766.333L1256.33 765.667M1531 765L1532 766L1531 765M372 767L373 768L372 767M503 767L504 768L503 767M1152 767L1153 768L1152 767M373 769L374 770L373 769M504 769L505 770L504 769M1153 770L1154 771L1153 770M1257 770L1257 773L1258 773L1257 770M1528 770L1529 771L1528 770M375 772L376 773L375 772M506 772L507 773L506 772M1154 772L1155 773L1154 772M376 774L377 775L376 774M507 774L508 775L507 774M1155 774L1156 775L1155 774M377 775L378 776L377 775M1525 775L1526 776L1525 775M1258 776L1258 779L1259 779L1258 776M378 777L379 778L378 777M509 777L510 778L509 777M1156 777L1157 778L1156 777M510 779L511 780L510 779M380 780L381 781L380 780M1157.33 780.667L1157.67 781.333L1157.33 780.667M381 782L382 783L381 782M512 782L513 783L512 782M513 784L514 785L513 784M1158.33 784.667L1158.67 785.333L1158.33 784.667M1259 784L1259 791L1260 791L1259 784M383 785L384 786L383 785M384 787L385 788L384 787M515 787L516 788L515 787M516 789L517 790L516 789M1159 789L1159 793L1160 793L1159 789M386 790L387 791L386 790M387 792L388 793L387 792M518 792L519 793L518 792M519 794L520 795L519 794M1383 794L1384 795L1383 794M389 795L390 796L389 795M390 797L391 798L390 797M521 797L522 798L521 797M1511 798L1512 799L1511 798M522 799L523 800L522 799M1380 799L1381 800L1380 799M392 800L393 801L392 800M393 802L394 803L393 802M524 802L525 803L524 802M1508 803L1509 804L1508 803M525 804L526 805L525 804M1377 804L1378 805L1377 804M395 805L396 806L395 805M526 805L527 806L526 805M527 807L528 808L527 807M1159 807L1159 811L1160 811L1159 807M397 808L398 809L397 808M1505 808L1506 809L1505 808M1374 809L1375 810L1374 809M398 810L399 811L398 810M529 810L530 811L529 810M1259 810L1259 816L1260 816L1259 810M530 812L531 813L530 812M400 813L401 814L400 813M1158.33 814.667L1158.67 815.333L1158.33 814.667M1371 814L1372 815L1371 814M401 815L402 816L401 815M532 815L533 816L532 815M533 817L534 818L533 817M403 818L404 819L403 818M1157 819L1158 820L1157 819M1368 819L1369 820L1368 819M404 820L405 821L404 820M535 820L536 821L535 820M1258 821L1258 825L1259 825L1258 821M536 822L537 823L536 822M1156 822L1157 823L1156 822M406 823L407 824L406 823M1365 824L1366 825L1365 824M407 825L408 826L407 825M538 825L539 826L538 825M1155 825L1156 826L1155 825M1494 826L1495 827L1494 826M539 827L540 828L539 827M409 828L410 829L409 828M1154 828L1155 829L1154 828M1257 828L1257 831L1258 831L1257 828M410 830L411 831L410 830M541 830L542 831L541 830M1153 830L1154 831L1153 830M1491 831L1492 832L1491 831M542 832L543 833L542 832M1152 832L1153 833L1152 832M412 833L413 834L412 833M1151 834L1152 835L1151 834M1256.33 834.667L1256.67 835.333L1256.33 834.667M413 835L414 836L413 835M544 835L545 836L544 835M1150 836L1151 837L1150 836M1488 836L1489 837L1488 836M545 837L546 838L545 837M415 838L416 839L415 838M1148 839L1149 840L1148 839M1255.33 839.667L1255.67 840.333L1255.33 839.667M547 840L548 841L547 840M1019 840L1020 841L1019 840M417 841L418 842L417 841M1018 841L1019 842L1018 841M1022 841L1023 842L1022 841M1147 841L1148 842L1147 841M548 842L549 843L548 842M1017 842L1018 843L1017 842M1023 842L1024 843L1023 842M1146 842L1147 843L1146 842M418 843L419 844L418 843M1016 843L1017 844L1016 843M1024 843L1025 844L1024 843M1254.33 843.667L1254.67 844.333L1254.33 843.667M1015 844L1016 845L1015 844M1025 844L1026 845L1025 844M550 845L551 846L550 845M1014 845L1015 846L1014 845M1144 845L1145 846L1144 845M420 846L421 847L420 846M1013 846L1014 847L1013 846M1143 846L1144 847L1143 846M551 847L552 848L551 847M1012 847L1013 848L1012 847M1029 847L1030 848L1029 847M1142 847L1143 848L1142 847M1253 847L1254 848L1253 847M421 848L422 849L421 848M1011 848L1012 849L1011 848M1030 848L1031 849L1030 848M1010 849L1011 850L1010 849M1031 849L1032 850L1031 849M553 850L554 851L553 850M1009 850L1010 851L1009 850M1252.33 850.667L1252.67 851.333L1252.33 850.667M423 851L424 852L423 851M1008 851L1009 852L1008 851M554 852L555 853L554 852M1007 852L1008 853L1007 852M424 853L425 854L424 853M1006 853L1007 854L1006 853M1036 853L1037 854L1036 853M1251.33 853.667L1251.67 854.333L1251.33 853.667M1005 854L1006 855L1005 854M1037 854L1038 855L1037 854M556 855L557 856L556 855M1004 855L1005 856L1004 855M1038 855L1039 856L1038 855M1134 855L1135 856L1134 855M426 856L427 857L426 856M1003 856L1004 857L1003 856M1133 856L1134 857L1133 856M1250.33 856.667L1250.67 857.333L1250.33 856.667M557 857L558 858L557 857M1002 857L1003 858L1002 857M1132 857L1133 858L1132 857M427 858L428 859L427 858M1001 858L1002 859L1001 858M1042 858L1043 859L1042 858M1000 859L1001 860L1000 859M1043 859L1044 860L1043 859M1129 859L1130 860L1129 859M1249 859L1250 860L1249 859M1474 859L1475 860L1474 859M559 860L560 861L559 860M999 860L1000 861L999 860M1045 860L1046 861L1045 860M1128 860L1129 861L1128 860M429 861L430 862L429 861M998 861L999 862L998 861M1046 861L1047 862L1046 861M1126 861L1127 862L1126 861M560 862L561 863L560 862M997 862L998 863L997 862M1048 862L1049 863L1048 862M1125 862L1126 863L1125 862M1248 862L1249 863L1248 862M430 863L431 864L430 863M996 863L997 864L996 863M1123 863L1124 864L1123 863M995 864L996 865L995 864M1051 864L1052 865L1051 864M1121 864L1122 865L1121 864M1247 864L1248 865L1247 864M1471 864L1472 865L1471 864M562 865L563 866L562 865M994 865L995 866L994 865M1053 865L1054 866L1053 865M1119 865L1120 866L1119 865M432 866L433 867L432 866M993 866L994 867L993 866M1055 866L1056 867L1055 866M1117 866L1118 867L1117 866M563 867L564 868L563 867M992 867L993 868L992 867M1057 867L1058 868L1057 867M1115 867L1116 868L1115 867M1246 867L1247 868L1246 867M1339 867L1340 868L1339 867M433 868L434 869L433 868M991 868L992 869L991 868M1060 868L1061 869L1060 868M1113 868L1114 869L1113 868M990 869L991 870L990 869M1062.67 869.333L1063.33 869.667L1062.67 869.333M1110 869L1111 870L1110 869M1245 869L1246 870L1245 869M1468 869L1469 870L1468 869M565 870L566 871L565 870M989 870L990 871L989 870M1065.67 870.333L1066.33 870.667L1065.67 870.333M1107 870L1108 871L1107 870M435 871L436 872L435 871M988 871L989 872L988 871M1069.67 871.333L1070.33 871.667L1069.67 871.333M1103.67 871.333L1104.33 871.667L1103.67 871.333M1244 871L1245 872L1244 871M566 872L567 873L566 872M987 872L988 873L987 872M1074.67 872.333L1075.33 872.667L1074.67 872.333M1097 872L1097 873L1100 873L1097 872M1336 872L1337 873L1336 872M567 873L568 874L567 873M986 873L987 874L986 873M1082 873L1082 874L1092 874L1082 873M437 874L438 875L437 874M985 874L986 875L985 874M1243 874L1244 875L1243 874M568 875L569 876L568 875M984 875L985 876L984 875M438 876L439 877L438 876M983 876L984 877L983 876M1242 876L1243 877L1242 876M982 877L983 878L982 877M1333 877L1334 878L1333 877M570 878L571 879L570 878M981 878L982 879L981 878M1241 878L1242 879L1241 878M440 879L441 880L440 879M980 879L981 880L980 879M571 880L572 881L571 880M979 880L980 881L979 880M1240 880L1241 881L1240 880M441 881L442 882L441 881M978 881L979 882L978 881M977 882L978 883L977 882M1330 882L1331 883L1330 882M573 883L574 884L573 883M976 883L977 884L976 883M1238 883L1239 884L1238 883M443 884L444 885L443 884M975 884L976 885L975 884M574 885L575 886L574 885M974 885L975 886L974 885M1237 885L1238 886L1237 885M444 886L445 887L444 886M973 886L974 887L973 886M972 887L973 888L972 887M1236 887L1237 888L1236 887M1327 887L1328 888L1327 887M576 888L577 889L576 888M971 888L972 889L971 888M446 889L447 890L446 889M970 889L971 890L970 889M577 890L578 891L577 890M969 890L970 891L969 890M1234 890L1235 891L1234 890M447 891L448 892L447 891M968 891L969 892L968 891M967 892L968 893L967 892M1233 892L1234 893L1233 892M1324 892L1325 893L1324 892M1454 892L1455 893L1454 892M579 893L580 894L579 893M966 893L967 894L966 893M449 894L450 895L449 894M965 894L966 895L965 894M580 895L581 896L580 895M964 895L965 896L964 895M1231 895L1232 896L1231 895M450 896L451 897L450 896M963 896L964 897L963 896M962 897L963 898L962 897M1321 897L1322 898L1321 897M1451 897L1452 898L1451 897M582 898L583 899L582 898M961 898L962 899L961 898M1229 898L1230 899L1229 898M452 899L453 900L452 899M960 899L961 900L960 899M1228 899L1229 900L1228 899M583 900L584 901L583 900M959 900L960 901L959 900M453 901L454 902L453 901M958 901L959 902L958 901M1227 901L1228 902L1227 901M957 902L958 903L957 902M1226 902L1227 903L1226 902M1448 902L1449 903L1448 902M585 903L586 904L585 903M956 903L957 904L956 903M455 904L456 905L455 904M955 904L956 905L955 904M586 905L587 906L586 905M954 905L955 906L954 905M1224 905L1225 906L1224 905M953 906L954 907L953 906M1223 906L1224 907L1223 906M457 907L458 908L457 907M952 907L953 908L952 907M588 908L589 909L588 908M951 908L952 909L951 908M458 909L459 910L458 909M950.333 909.667L950.667 910.333L950.333 909.667M589 910L590 911L589 910M1220 910L1221 911L1220 910M951 911L952 912L951 911M1219 911L1220 912L1219 911M460 912L461 913L460 912M952 912L953 913L952 912M1218 912L1219 913L1218 912M591 913L592 914L591 913M953 913L954 914L953 913M461 914L462 915L461 914M954 914L955 915L954 914M592 915L593 916L592 915M463 917L464 918L463 917M594 918L595 919L594 918M1213 918L1214 919L1213 918M464 919L465 920L464 919M960 919L961 920L960 919M1212 919L1213 920L1212 919M595 920L596 921L595 920M961 920L962 921L961 920M1211 920L1212 921L1211 920M1437 920L1438 921L1437 920M962 921L963 922L962 921M1210 921L1211 922L1210 921M466 922L467 923L466 922M963 922L964 923L963 922M1209 922L1210 923L1209 922M597 923L598 924L597 923M964 923L965 924L964 923M1208 923L1209 924L1208 923M467 924L468 925L467 924M1207 924L1208 925L1207 924M598 925L599 926L598 925M1206 925L1207 926L1206 925M1434 925L1435 926L1434 925M1205 926L1206 927L1205 926M469 927L470 928L469 927M969 927L970 928L969 927M1204 927L1205 928L1204 927M600 928L601 929L600 928M970 928L971 929L970 928M470 929L471 930L470 929M971 929L972 930L971 929M601 930L602 931L601 930M972 930L973 931L972 930M1431 930L1432 931L1431 930M973 931L974 932L973 931M1199 931L1200 932L1199 931M472 932L473 933L472 932M1198 932L1199 933L1198 932M603 933L604 934L603 933M1197 933L1198 934L1197 933M977 934L978 935L977 934M604 935L605 936L604 935M978 935L979 936L978 935M1298 935L1299 936L1298 935M979 936L980 937L979 936M1193 936L1194 937L1193 936M475 937L476 938L475 937M1192 937L1193 938L1192 937M606 938L607 939L606 938M982 938L983 939L982 938M983 939L984 940L983 939M1189 939L1190 940L1189 939M477 940L478 941L477 940M1188 940L1189 941L1188 940M1295 940L1296 941L1295 940M608 941L609 942L608 941M986 941L987 942L986 941M478 942L479 943L478 942M1185 942L1186 943L1185 942M609 943L610 944L609 943M989 943L990 944L989 943M990 944L991 945L990 944M1182 944L1183 945L1182 944M480 945L481 946L480 945M992 945L993 946L992 945M1292 945L1293 946L1292 945M611 946L612 947L611 946M1179 946L1180 947L1179 946M481 947L482 948L481 947M995 947L996 948L995 947M612 948L613 949L612 948M997 948L998 949L997 948M1176 948L1177 949L1176 948M998 949L999 950L998 949M1174 949L1175 950L1174 949M483 950L484 951L483 950M1000 950L1001 951L1000 950M1172 950L1173 951L1172 950M1289 950L1290 951L1289 950M614 951L615 952L614 951M1002 951L1003 952L1002 951M1171 951L1172 952L1171 951M484 952L485 953L484 952M1004 952L1005 953L1004 952M1169 952L1170 953L1169 952M615 953L616 954L615 953M1167 953L1168 954L1167 953M1417 953L1418 954L1417 953M1007 954L1008 955L1007 954M1165 954L1166 955L1165 954M486 955L487 956L486 955M699 955L700 956L699 955M1009 955L1010 956L1009 955M1163 955L1164 956L1163 955M1286 955L1287 956L1286 955M617 956L618 957L617 956M1161 956L1162 957L1161 956M487 957L488 958L487 957M1014 957L1015 958L1014 957M1159 957L1160 958L1159 957M618 958L619 959L618 958M1016 958L1017 959L1016 958M1157 958L1158 959L1157 958M1414 958L1415 959L1414 958M1018 959L1019 960L1018 959M1154 959L1155 960L1154 959M489 960L490 961L489 960M1020.67 960.333L1021.33 960.667L1020.67 960.333M1152 960L1153 961L1152 960M1283 960L1284 961L1283 960M620 961L621 962L620 961M1023 961L1024 962L1023 961M1149.67 961.333L1150.33 961.667L1149.67 961.333M490 962L491 963L490 962M1025.67 962.333L1026.33 962.667L1025.67 962.333M1147 962L1148 963L1147 962M621 963L622 964L621 963M1028.67 963.333L1029.33 963.667L1028.67 963.333M1144 963L1145 964L1144 963M1411 963L1412 964L1411 963M1031 964L1032 965L1031 964M1141 964L1142 965L1141 964M492 965L493 966L492 965M1034.67 965.333L1035.33 965.667L1034.67 965.333M1138 965L1139 966L1138 965M1280 965L1281 966L1280 965M623 966L624 967L623 966M1037.67 966.333L1038.33 966.667L1037.67 966.333M1135 966L1136 967L1135 966M1041.67 967.333L1042.33 967.667L1041.67 967.333M1131.67 967.333L1132.33 967.667L1131.67 967.333M624 968L625 969L624 968M1045.67 968.333L1046.33 968.667L1045.67 968.333M1127.67 968.333L1128.33 968.667L1127.67 968.333M1049.67 969.333L1050.33 969.667L1049.67 969.333M1122 969L1122 970L1125 970L1122 969M495 970L496 971L495 970M1054.67 970.333L1055.33 970.667L1054.67 970.333M1117 970L1117 971L1120 971L1117 970M626 971L627 972L626 971M1059 971L1059 972L1062 972L1059 971M1111 971L1111 972L1114 972L1111 971M1067 972L1067 973L1071 973L1067 972M1102 972L1102 973L1107 973L1102 972M497 973L498 974L497 973M627 973L628 974L627 973M1080 973L1080 974L1094 974L1080 973M498 975L499 976L498 975M1275 977L1276 978L1275 977M500 978L501 979L500 978M626 978L627 979L626 978M1278 979L1279 980L1278 979M501 980L502 981L501 980M623 980L624 981L623 980M620 982L621 983L620 982M503 983L504 984L503 983M618 983L619 984L618 983M504 985L505 986L504 985M615 985L616 986L615 985M1397 986L1398 987L1397 986M612 987L613 988L612 987M506 988L507 989L506 988M609 989L610 990L609 989M507 990L508 991L507 990M1295 990L1296 991L1295 990M606 991L607 992L606 991M1394 991L1395 992L1394 991M1298 992L1299 993L1298 992M509 993L510 994L509 993M603 993L604 994L603 993M601 994L602 995L601 994M510 995L511 996L510 995M600 995L601 996L600 995M598 996L599 997L598 996M1391 996L1392 997L1391 996M512 998L513 999L512 998M595 998L596 999L595 998M592 1000L593 1001L592 1000M514 1001L515 1002L514 1001M1312 1001L1313 1002L1312 1001M589 1002L590 1003L589 1002M515 1003L516 1004L515 1003M1315 1003L1316 1004L1315 1003M586 1004L587 1005L586 1004M517 1006L518 1007L517 1006M583 1006L584 1007L583 1006M581 1007L582 1008L581 1007M518 1008L519 1009L518 1008M578 1009L579 1010L578 1009M520 1011L521 1012L520 1011M575 1011L576 1012L575 1011M1329 1012L1330 1013L1329 1012M521 1013L522 1014L521 1013M572 1013L573 1014L572 1013M1332 1014L1333 1015L1332 1014M1380 1014L1381 1015L1380 1014M569 1015L570 1016L569 1015M523 1016L524 1017L523 1016M566 1017L567 1018L566 1017M524 1018L525 1019L524 1018M564 1018L565 1019L564 1018M1377 1019L1378 1020L1377 1019M561 1020L562 1021L561 1020M526 1021L527 1022L526 1021M558 1022L559 1023L558 1022M527 1023L528 1024L527 1023M555 1024L556 1025L555 1024M1374 1024L1375 1025L1374 1024M1349 1025L1350 1026L1349 1025M529 1026L530 1027L529 1026M552 1026L553 1027L552 1026M1352 1027L1353 1028L1352 1027M530 1028L531 1029L530 1028M549 1028L550 1029L549 1028M547 1029L548 1030L547 1029M546 1030L547 1031L546 1030M532 1031L533 1032L532 1031M544 1031L545 1032L544 1031M541 1033L542 1034L541 1033M534 1034L535 1035L534 1034M538 1035L539 1036L538 1035M535 1036L536 1037L535 1036M1366 1036L1367 1037L1366 1036z"/>
</svg>
